<?xml version="1.0" standalone="no"?>
<!DOCTYPE svg PUBLIC "-//W3C//DTD SVG 20010904//EN"
 "http://www.w3.org/TR/2001/REC-SVG-20010904/DTD/svg10.dtd">
<svg version="1.0" xmlns="http://www.w3.org/2000/svg"
 width="64.000000pt" height="64.000000pt" viewBox="0 0 64.000000 64.000000"
 preserveAspectRatio="xMidYMid meet">

<g transform="translate(0.000000,64.000000) scale(0.100000,-0.100000)"
fill="#ffffff" stroke="none">
<path d="M223 622 c-109 -39 -178 -112 -210 -221 -29 -102 4 -228 82 -306 122
-121 328 -121 450 0 91 92 118 241 64 356 -69 146 -241 223 -386 171z m173
-156 c28 -28 34 -41 34 -77 0 -36 -6 -47 -39 -80 l-40 -37 35 -7 c39 -7 107
-63 130 -106 13 -27 12 -29 -23 -58 -97 -80 -249 -80 -346 0 -35 29 -36 31
-23 58 23 43 91 99 130 106 l35 7 -40 37 c-33 33 -39 44 -39 80 0 36 6 49 34
77 28 28 42 34 76 34 34 0 48 -6 76 -34z"/>
</g>
</svg>
