<?xml version="1.0" encoding="UTF-8"?>
<svg xmlns="http://www.w3.org/2000/svg" xmlns:xlink="http://www.w3.org/1999/xlink" width="300px" height="300px" viewBox="0 0 300 300" version="1.1">
<g id="surface1">
<path style=" stroke:none;fill-rule:nonzero;fill:rgb(99.215686%,88.235294%,0%);fill-opacity:1;" d="M -0.132812 150.023438 C -0.132812 67.164062 67.003906 -0.0234375 149.867188 -0.0234375 C 232.726562 -0.0234375 299.816406 67.164062 299.816406 150.023438 C 299.816406 232.886719 232.679688 300.023438 149.816406 300.023438 C 66.957031 300.023438 -0.132812 232.835938 -0.132812 150.023438 "/>
<path style=" stroke:none;fill-rule:nonzero;fill:rgb(13.72549%,12.156863%,12.54902%);fill-opacity:1;" d="M 149.84375 7.113281 C 70.988281 7.113281 7.121094 71.175781 7.121094 150.03125 C 7.121094 228.890625 70.988281 292.757812 149.84375 292.757812 C 228.703125 292.757812 292.570312 228.890625 292.570312 150.03125 C 292.570312 71.175781 228.75 7.113281 149.84375 7.113281 Z M 149.84375 15.121094 C 224.308594 15.121094 284.609375 75.570312 284.609375 150.03125 C 284.609375 224.496094 224.355469 284.796875 149.84375 284.796875 C 75.382812 284.796875 14.933594 224.542969 14.933594 150.03125 C 14.933594 75.519531 75.382812 15.121094 149.84375 15.121094 Z M 105.167969 36.898438 L 141.886719 150.421875 L 157.707031 150.421875 L 193.886719 36.898438 L 171.816406 36.898438 L 149.746094 112.679688 L 127.824219 36.898438 Z M 48.429688 92.757812 L 48.429688 204.71875 L 83.585938 204.71875 C 112.050781 204.71875 126.503906 170.246094 106.679688 149.007812 L 106.679688 148.859375 C 106.679688 148.761719 106.828125 148.714844 106.828125 148.714844 C 123.28125 130.160156 116.347656 97.394531 85.734375 92.804688 L 48.429688 92.804688 Z M 193.886719 92.757812 L 193.886719 204.71875 L 229.238281 204.71875 C 257.707031 204.71875 272.160156 170.246094 252.335938 149.007812 L 252.335938 148.859375 C 252.335938 148.761719 252.480469 148.714844 252.480469 148.714844 C 268.9375 130.160156 262.003906 97.394531 231.386719 92.804688 L 193.886719 92.804688 Z M 68.984375 113.703125 L 86.320312 113.703125 C 97.550781 113.703125 99.84375 135.238281 87.003906 138.703125 L 68.984375 138.703125 Z M 214.785156 113.703125 L 231.925781 113.703125 C 243.15625 113.703125 245.5 135.238281 232.609375 138.703125 L 214.785156 138.703125 Z M 68.984375 158.722656 L 84.269531 158.722656 C 96.964844 158.722656 101.601562 181.820312 85.097656 185.042969 L 68.9375 185.042969 L 68.9375 158.722656 Z M 214.785156 158.722656 L 229.921875 158.722656 C 242.617188 158.722656 247.257812 181.820312 230.753906 185.042969 L 214.785156 185.042969 Z M 127.773438 207.160156 C 118.691406 207.160156 111.269531 214.582031 111.269531 223.664062 L 111.269531 248.46875 C 111.269531 257.550781 118.691406 264.972656 127.773438 264.972656 L 128.117188 264.972656 C 137.199219 264.972656 144.621094 257.550781 144.621094 248.46875 L 144.621094 223.664062 C 144.621094 214.582031 137.199219 207.160156 128.117188 207.160156 Z M 171.425781 207.160156 C 162.34375 207.160156 154.582031 214.242188 154.582031 223.324219 L 154.582031 227.425781 C 154.582031 236.507812 162.882812 243.832031 171.425781 244.074219 C 171.425781 244.074219 174.894531 244.027344 176.699219 243.050781 L 176.847656 248.664062 C 176.847656 251.496094 174.550781 253.988281 171.769531 253.9375 C 169.472656 253.890625 166.347656 252.71875 166.347656 249.835938 C 166.347656 249.835938 166.835938 246.078125 164.152344 246.078125 L 154.628906 246.078125 C 154.582031 247.003906 154.628906 247.542969 154.628906 248.8125 C 154.628906 257.40625 162.003906 264.972656 171.964844 264.972656 C 181.386719 264.875 187.929688 257.648438 187.929688 248.324219 L 187.929688 223.519531 C 187.929688 214.4375 180.851562 207.210938 171.769531 207.210938 L 171.425781 207.210938 Z M 171.621094 218.878906 C 174.601562 218.878906 176.894531 221.125 176.894531 223.957031 L 176.894531 227.179688 C 176.894531 230.011719 174.648438 232.257812 171.816406 232.257812 C 168.839844 232.257812 166.398438 230.011719 166.398438 227.179688 L 166.398438 223.957031 C 166.347656 221.125 168.789062 218.878906 171.621094 218.878906 Z M 127.773438 219.027344 C 130.800781 219.027344 133.195312 221.273438 133.195312 224.105469 L 133.195312 248.761719 C 133.195312 251.59375 130.753906 253.839844 127.921875 253.839844 C 124.941406 253.839844 122.648438 251.59375 122.648438 248.761719 L 122.648438 224.105469 C 122.695312 221.273438 124.941406 219.027344 127.773438 219.027344 Z M 127.773438 219.027344 "/>
</g>
</svg>
