<?xml version="1.0" encoding="utf-8"?>
<!-- Generator: Adobe Illustrator 25.0.1, SVG Export Plug-In . SVG Version: 6.00 Build 0)  -->
<!DOCTYPE svg PUBLIC "-//W3C//DTD SVG 1.0//EN" "http://www.w3.org/TR/2001/REC-SVG-20010904/DTD/svg10.dtd" [
	<!ENTITY ns_extend "http://ns.adobe.com/Extensibility/1.0/">
	<!ENTITY ns_ai "http://ns.adobe.com/AdobeIllustrator/10.0/">
	<!ENTITY ns_graphs "http://ns.adobe.com/Graphs/1.0/">
	<!ENTITY ns_vars "http://ns.adobe.com/Variables/1.0/">
	<!ENTITY ns_imrep "http://ns.adobe.com/ImageReplacement/1.0/">
	<!ENTITY ns_sfw "http://ns.adobe.com/SaveForWeb/1.0/">
	<!ENTITY ns_custom "http://ns.adobe.com/GenericCustomNamespace/1.0/">
	<!ENTITY ns_adobe_xpath "http://ns.adobe.com/XPath/1.0/">
]>
<svg version="1.0" id="Layer_1" xmlns:x="&ns_extend;" xmlns:i="&ns_ai;" xmlns:graph="&ns_graphs;"
	 xmlns="http://www.w3.org/2000/svg" xmlns:xlink="http://www.w3.org/1999/xlink" x="0px" y="0px" viewBox="0 0 608.6 426.1"
	 style="enable-background:new 0 0 608.6 426.1;" xml:space="preserve">
<style type="text/css">
	.st0{fill:#FFFFFF;}
	.st1{fill:#3C6CAA;}
	.st2{fill:#C13F3F;}
</style>
<metadata>
	<sfw  xmlns="&ns_sfw;">
		<slices></slices>
		<sliceSourceBounds  bottomLeftOrigin="true" height="327.4" width="327.4" x="122.6" y="251.5"></sliceSourceBounds>
		<optimizationSettings>
			<targetSettings  fileFormat="PNG24Format" targetSettingsID="0">
				<PNG24Format  filtered="false" interlaced="false" matteColor="#FFFFFF" noMatteColor="false" transparency="true">
					</PNG24Format>
			</targetSettings>
		</optimizationSettings>
	</sfw>
</metadata>
<g>
	<g>
		<path class="st0" d="M456.6,218.8c0,90.4-73.3,163.7-163.7,163.7c-90.4,0-163.7-73.3-163.7-163.7c0-90.4,73.3-163.7,163.7-163.7
			C383.3,55.1,456.6,128.4,456.6,218.8"/>
		<path class="st1" d="M289.3,99l-0.8-14.3c-1.9,0-3.9,0.1-5.9,0.2c0.4,4.8,0.6,9.5,0.7,14.3c-2.5,0.1-5.3,0.3-8,0.4l-1.8-34.5
			c2.5-0.3,5.2-0.4,7.9-0.5c0.3,4.4,0.6,8.8,0.8,13.2c2-0.1,3.7-0.3,5.7-0.3c-0.1-4.3-0.3-8.8-0.5-13.2c2.6-0.3,5.3-0.1,8-0.3
			l1.9,34.6L289.3,99z"/>
		<path class="st1" d="M257.3,68.6c2.2-0.7,4.3-1.3,6.8-1.9c3,11,6,22,8.8,33.1l0.1,0.4l-8.2,2.2c-4.4-7.1-9.1-14.7-13.2-21.7
			l0.4,1.5l5.9,22c-2.4,0.7-4.6,1.3-6.8,1.9c-3-11.1-6.1-22.3-8.9-33.6l8.4-2.3c4.5,6.4,8.8,13.1,12.5,19.9L257.3,68.6z"/>
		<path class="st1" d="M338.4,71.4c-0.9,8-2.4,16.1-3.6,24c3.8-7,7.6-14.4,11.2-21.6c2.5,0.8,5.3,1.8,7.7,2.5l-0.3,0.6l-17.3,29.8
			l-0.3,0.2l-8.9-2.9v-0.3l3.6-34.9C333.3,69.7,335.9,70.5,338.4,71.4"/>
		<path class="st1" d="M314.4,72.7c-1.8,4.8-3.1,9.9-4.4,14.5l4.4,0.8C314.3,83,314.5,77.7,314.4,72.7 M320.3,66.6
			c0.9,11.8,1.5,23.6,2.4,35.4c-2.9-0.3-5.5-0.7-8.3-1.2c0-2.4,0.1-4,0-6.6c-2.1-0.2-4.1-0.6-6.3-1c-0.5,1.1-0.6,2.1-1.1,3.3
			l-1.1,3.1c-2.6-0.1-5.3-0.9-8-1.2l0.8-2.2l12-30.9L320.3,66.6z"/>
		<path class="st1" d="M215.9,84.9l16.8-8.5c1.1,1.9,1.9,3.7,2.9,5.5l-9.5,5c1,2.1,2,4.3,3.3,6.3l9.1-4.5c1,1.7,2.1,3.7,3,5.6
			c-2.9,1.5-6.3,3.1-9.3,4.7l3.8,7.4c3.4-1.3,6.6-3.3,10-4.8c1.1,1.9,1.9,3.7,2.9,5.5l-17.4,8.8l-0.3-0.6L215.9,84.9z"/>
		<path class="st1" d="M366.6,84.1c-1.6,7.5-3.4,15.1-5.5,22.4c3.6-6.4,7.5-12.9,11.4-19.3c2.2,1.3,4.1,2.4,6.1,3.6L361,120.8
			l-0.4-0.2c-2.3-1.5-4.8-2.8-7-4.3c1.9-8.3,3.9-16.4,6.1-24.3c-4.3,6.8-8,13.9-12.3,20.6l-6-3.8l17.5-29.6l7.7,4.3L366.6,84.1z"/>
		<path class="st1" d="M214.9,111.5c-2.1-1.3-4.1,0.6-5.6,1.9l5.8,7.1l2.4-2.3c0.8-0.9,0.8-2.2,0.4-3.4
			C217.2,113.5,216,112.5,214.9,111.5 M205.2,100.6c-1.9-0.8-3.5,0.9-4.8,2l4.9,6l2.3-2c0.5-0.6,0.9-1.5,0.6-2.4
			C207.6,102.8,206.6,101.5,205.2,100.6 M214.2,98.9c0.8,1.8,1.1,4.1,0,5.9c0.5,0.1,1.1-0.4,1.8-0.4c3.1-0.4,5.3,1.8,7.3,3.9
			c1.7,2.6,3.5,5.9,2.3,9.4c-2.6,5.6-8.4,8.7-13.1,12.6l-1.9-2.1l-20.1-24.9c3.6-3.3,7.5-6.1,11.3-9.1c1.8-1.1,4.1-1.6,6.3-1
			C210.6,93.9,212.9,96.5,214.2,98.9"/>
		<path class="st1" d="M191.6,126.5c1.4,3.7,2.9,7.3,4.3,10.9c2.4,1.4,3.6-0.7,3.5-2.1C198.7,131.4,194.4,129.1,191.6,126.5
			 M181.2,121.4c-0.4,0.8-0.8,1.5-0.4,2.4c2,3.5,5.8,5.9,8.8,8.6c-1.3-3.9-3-7.6-4.5-11.4C184.1,120.1,182.1,120.1,181.2,121.4
			 M185.7,112.3c6.5,2.1,11.3,8.3,16.6,12.8c3.2,3,6,7,4.1,11.6c-1.5,3.4-4.4,6.8-7.8,8.5l0.9,2.5l-3.4,1.4l-0.1-0.5
			c-1.4,2.1-2.7,4.5-4.1,6.8l-12.9-2.2l-0.1,0.1l2.5,3.8c2.3,1.4,4.5,2.8,6.9,4.1c-1.5,2.4-2.8,4.7-4.1,7l-0.4-0.2l-29-17l-0.4-0.3
			c1.3-2.4,2.6-4.6,4-6.9c4.4,2.5,8.8,5,13.1,7.5v-0.4c-3.5-4.1-6.6-8.6-9.8-13c1.1-2.4,2.7-4.8,4.1-7.1l9.5,14l0.5,0.4l19.9,2.9
			c-0.4-0.7-0.5-2.2-1.5-2.4c-6.8-2-11.8-8.8-17.4-13.4c-3.3-2.8-4.8-6.9-3.4-10.9c1.4-3.5,4.8-7.2,8.3-8.7c-0.3-0.8-0.6-1.6-1-2.5
			l3.4-1.3L185.7,112.3z"/>
		<path class="st1" d="M175.1,171.5l7.2,2.5c-0.8,2.4-1.9,5-2.6,7.4c-2.5-0.7-5-1.5-7.4-2.4L175.1,171.5z"/>
		<path class="st1" d="M156.6,177.2c-0.2,2.4-0.9,5-1.4,7.4c-2-0.2-4.4-1.5-6.1,0c-0.9,0.8-1.1,2-1,3.1c0.2,0.8,0.9,1.4,1.6,1.6
			l18.3,3.8c0.9,0,1.8,0.3,2.4-0.5c0.9-1,1.1-2.5,0.5-3.8c-1.5-1.9-4.2-1.8-6.5-2.4c0.5-2.6,0.9-4.9,1.4-7.4
			c4.4,0.5,9.4,1.5,11.5,6.1c1.2,4.3,0.2,9-2,12.5c-2.4,3.4-6.8,4-10.5,3.1l-17.1-3.8c-2.4-0.6-4.8-2.8-5.6-5.1
			c-1.1-5.1-0.1-10.6,3.8-14.1C148.7,175.7,153.3,176.2,156.6,177.2"/>
		<path class="st1" d="M174.6,206.3l-0.8,8.2c-2.7-0.3-5.3-0.6-7.8-0.8c0.3-2.7,0.5-5.5,0.7-8.2L174.6,206.3z"/>
		<path class="st1" d="M145.6,217.4c2,0.3,4.3,0.3,6.5,0.3c0.1-3.3,0.1-6.9,0.2-10.3l6.4,0.1v10l0,0.2l14.9,0.4l-0.1,8.1h-0.8
			l-33.8-0.6c0-6.6,0-13.2,0.1-19.6l6.6,0.3V217.4z"/>
		<path class="st2" d="M174.5,236.6c2.1,12.4,5.8,24.1,11.4,35l-0.5,0.5l-10.5,5.4c-6.3-11.8-10.3-24.5-12.4-38
			c-0.1-0.5-0.3-1.4,0.5-1.3C166.8,237.8,170.6,237,174.5,236.6"/>
		<path class="st2" d="M152.9,240.6c2.1,14.6,7,28.1,13,41c-3.5,2-7.1,3.8-10.9,5.5c-7.1-14.1-12-29.3-14.5-45.3
			c4-0.9,8-1.5,12.1-1.9L152.9,240.6z"/>
		<path class="st2" d="M226.5,318.1c7.9,5.3,16.1,9.5,24.9,12.8c-0.1,0.1,0,0.2,0.1,0.2h0.1l-2.1,12.4c-3-0.6-5.9-1.9-8.8-3.1
			c-24-9.5-47.5-30.6-60.9-53.5c3.1-2.4,7-4.3,10.5-6.5C199.2,294.4,212.2,308.9,226.5,318.1"/>
		<path class="st2" d="M171.6,291.6c16.9,29,46.3,51.9,76.5,61.5c0.2,4.3-0.4,8.6-0.1,13c-34.3-10.3-68.2-35.1-86.9-68.3
			C164.6,295.9,168,293.5,171.6,291.6"/>
		<path class="st1" d="M292.4,184.1c-5.8,0.6-1.5,7.4-5.4,9.8c-1.5,1-4.8,0.8-4.4,3.4c1.6-0.3,3.1-1.3,4.6-2
			c6.3-1.6,12.6-2.3,19.4-2.9l0.7-0.4c-0.1-0.3-0.3-0.5-0.5-0.8C302.8,187.2,297.9,184.8,292.4,184.1 M420.7,132.9
			c12.6,18.9,20.8,39.6,24.3,62.4c-16.9-5.1-34.4-9-52.4-11.5l-0.1,0.1c18.8,6,36.6,14.1,53.9,23.8c1.4,19.9-0.9,39.3-6.5,56.8
			c-15.4-7.6-30.8-15.4-47-21.1c3.3,2.6,7,4.9,10.6,7.4c11.1,7.5,21.9,15.9,32.6,24.5c-7.1,18.1-17.6,34.9-31.9,49.9
			c-15.6-12.8-30.9-28.6-43.9-44.2c4.1,9.5,10.4,18.4,16.1,27.3c6.1,8.6,12.1,17.1,19.1,25.3c-15.8,14.3-33.6,24.3-52.5,30.9
			c-9.9-14.4-16.5-30.3-22.9-46.2c0.4,6.5,1.9,12.9,3,19.3c2.4,10.4,5,20.5,8.1,30.4c-19.8,5.4-44.1,6.5-64.8,2.5
			c-1.8-11.8-2.7-24-1.9-36.4c0.3-6.1,1.1-12.3,1.5-18.1c1.1-4.4,1.1-9.1,1.1-13.6c-0.1-0.9-0.4-1.8-1.3-2.3c-2.4-0.2-4,1.4-5.9,2.1
			c-5.9,2.8-11,7.6-17.4,9.4c-2.4,0.6-5,0.1-6.8-1.5c-3.5-3.8-4.6-8.5-6.3-13c-2-7.8-5-15.5-4.1-24c0.5-1,1.1-2.1,2.3-2.8
			c3.8-1,7,1.5,10.1,3.3c6.3,3.8,11.8,9.4,19,10.8c1.2,0.2,2.4-0.3,3.4-0.9c2.3-3.5,2.6-8.8,1.3-12.6c-1.4-2.6-3.9-5.3-7.1-4.9
			c-5.5,0.4-10.1,2.6-15.6,2.9c-3.8,0.1-7.5,0.3-11-0.7c-3.1-1.1-6.6-1.9-9-4.6c-3.6-5.6-4.4-12.5-4.9-19.4c0.1-1.9,0.3-3.9,1-5.5
			c4.1-2.9,9.3-4.9,12.1-9.4c0.9-2.3,0.9-5.6,0.2-8c-1.5,1.6-2.5,3.6-4.5,4.6c-2.6,1.6-5.9,2.6-9,1.9c-3.5-2.9-2.1-8-1.9-12.1
			c0.5-2,1.1-4.3,3-5.6c14.1-10.5,30-16.9,45.8-23.5c6.9-2.8,13.8-5.5,21-7.5c1.3-1.1,1.3-3,2-4.4c1.6-3.4,5.3-5,8.1-7
			c6.8-4,13.9-7.3,21.1-9.9l0.9-0.6c1.5-5.4,4.1-10.5,8.6-14.6c7.3-5.6,15.1-9.5,23.8-11.6c16.8-3.6,36-3.4,53.4-1.6
			C406.8,130,414,131,420.7,132.9"/>
	</g>
</g>
</svg>
