<?xml version="1.0" encoding="utf-8"?>
<!DOCTYPE svg PUBLIC "-//W3C//DTD SVG 1.1//EN" "http://www.w3.org/Graphics/SVG/1.1/DTD/svg11.dtd" [
<!ENTITY ns_svg "http://www.w3.org/2000/svg">
<!ENTITY ns_xlink "http://www.w3.org/1999/xlink">
]>
<svg  version="1.1" id="Layer_1" xmlns="&ns_svg;" xmlns:xlink="&ns_xlink;" width="161.08" height="189.656"
viewBox="0 0 161.08 189.656" overflow="visible" enable-background="new 0 0 161.08 189.656" xml:space="preserve">
<g>
<path fill="#C7A13A" d="M0,0h161.08v64.711c-0.296,12.124-1.956,24.307-5.336,35.986c-6.848,23.834-21.136,44.376-39.069,61.213
c-11.116,10.465-23.507,19.209-36.135,27.746c-12.628-8.537-25.019-17.281-36.135-27.746
c-17.934-16.837-32.222-37.379-39.069-61.213C1.957,89.018,0.296,76.834,0,64.711V0z"/>
<path fill="#FFFFFF" d="M4.625,4.654h151.832v59.938c-0.297,11.738-1.897,23.507-5.158,34.83
c-6.641,23.093-20.424,42.805-37.795,59.138c-10.168,9.574-21.402,17.697-32.963,25.493c-11.561-7.796-22.795-15.919-32.963-25.493
c-17.371-16.333-31.155-36.045-37.795-59.138C6.521,88.099,4.92,76.331,4.625,64.592V4.654z"/>
<path fill="#FF0000" d="M9.278,9.278h142.523v55.195c-0.297,12.094-1.986,23.329-4.98,33.704
c-6.432,22.381-19.623,41.145-36.49,57.004c-9.219,8.686-19.297,16.215-29.791,23.299c-10.494-7.084-20.572-14.613-29.792-23.299
c-16.867-15.859-30.058-34.623-36.49-57.004c-2.994-10.375-4.684-21.609-4.98-33.704V9.278z"/>
<path fill="#FFFFFF" d="M13.902,13.932v50.452c0.296,11.68,1.927,22.529,4.802,32.519c1.126,3.884,2.46,7.647,3.972,11.323
l33.704-25.107l-14.407,46.835l38.566-28.664l38.565,28.664l-14.407-46.835l37.885-28.873l-47.044-0.326l51.608-39.989H13.902z"/>
<path fill="#FF0000" d="M35.097,44.672v2.401h-3.913v-2.401c-2.964-0.119-5.276-1.038-6.877-2.668
c-2.727-2.786-2.52-8.27,0.267-11.086c1.393-1.393,3.586-2.193,6.61-2.312V26.56h3.913v2.045c3.142,0.119,5.336,0.949,6.67,2.401
c2.579,2.728,2.905,7.678,0.593,10.523C40.789,43.486,38.328,44.553,35.097,44.672L35.097,44.672z M35.097,40.907
c1.038,0,1.957-0.178,2.698-0.534c0.741-0.355,1.274-0.859,1.601-1.482c0.326-0.593,0.474-1.215,0.474-2.401
c0-2.964-1.601-4.298-4.772-4.298V40.907L35.097,40.907z M31.184,40.907v-8.715c-1.689,0-2.905,0.385-3.646,1.186
c-0.741,0.771-1.126,1.808-1.126,3.379C26.412,39.722,28.013,40.907,31.184,40.907z"/>
<polygon fill="#FF0000" points="47.488,47.073 47.488,27.834 51.371,27.834 51.371,35.572 58.841,27.834 64.207,27.834 
56.055,35.927 64.266,47.073 59.108,47.073 53.209,38.625 51.371,40.433 51.371,47.073 	"/>
<polygon fill="#FF0000" points="80.54,96.31 49.385,119.461 61.035,81.637 30.236,58.16 68.475,57.893 80.54,20.157 92.604,57.893 
130.845,58.16 100.045,81.637 111.694,119.461 	"/>
</g>
</svg>
