<?xml version="1.0" encoding="UTF-8"?>
<svg xmlns="http://www.w3.org/2000/svg" xmlns:xlink="http://www.w3.org/1999/xlink" width="200px" height="323px" viewBox="0 0 200 322" version="1.1">
<g id="surface1">
<path style=" stroke:none;fill-rule:nonzero;fill:rgb(100%,100%,100%);fill-opacity:1;" d="M 200.265625 161.007812 C 200.265625 249.929688 155.4375 322.015625 100.132812 322.015625 C 44.832031 322.015625 0 249.929688 0 161.007812 C 0 72.082031 44.832031 0 100.132812 0 C 155.441406 0 200.265625 72.082031 200.265625 161.007812 "/>
<path style=" stroke:none;fill-rule:nonzero;fill:rgb(0%,0%,0%);fill-opacity:1;" d="M 177.269531 70.359375 L 160.847656 90.390625 C 179.855469 107.183594 191.871094 131.714844 191.871094 158.972656 C 191.871094 209.386719 150.757812 250.507812 100.339844 250.507812 C 79.5625 250.507812 60.363281 243.515625 44.96875 231.765625 L 25.078125 256.035156 C 42.453125 293 69.683594 316.886719 100.210938 316.886719 C 152.46875 316.886719 195.09375 246.898438 195.09375 161.082031 C 195.09375 127.285156 188.476562 95.941406 177.269531 70.359375 Z M 177.269531 70.359375 "/>
<path style=" stroke:none;fill-rule:nonzero;fill:rgb(0%,41.960784%,65.098039%);fill-opacity:1;" d="M 100.210938 5.273438 C 47.953125 5.273438 5.328125 75.265625 5.328125 161.082031 C 5.328125 195.015625 12 226.472656 23.285156 252.105469 L 41.933594 229.355469 C 21.722656 212.539062 8.808594 187.21875 8.808594 158.972656 C 8.808594 108.554688 49.929688 67.433594 100.339844 67.433594 C 122.113281 67.433594 142.152344 75.109375 157.894531 87.886719 L 175.488281 66.429688 C 158.113281 29.289062 130.820312 5.273438 100.210938 5.273438 Z M 100.210938 5.273438 "/>
<path style=" stroke:none;fill-rule:nonzero;fill:rgb(0%,0%,0%);fill-opacity:1;" d="M 166.210938 109.800781 C 166.285156 109.898438 166.375 110.007812 166.460938 110.109375 C 166.546875 110.035156 166.640625 109.972656 166.738281 109.921875 C 163.332031 105.324219 159.460938 101.089844 155.191406 97.289062 L 141.875 113.535156 C 152.378906 115.007812 161.527344 113.578125 166.210938 109.800781 Z M 166.210938 109.800781 "/>
<path style=" stroke:none;fill-rule:nonzero;fill:rgb(0%,0%,0%);fill-opacity:1;" d="M 171.027344 200.96875 C 170.992188 201.023438 170.9375 201.101562 170.894531 201.171875 L 167.914062 201.183594 C 153.804688 223.964844 128.640625 239.175781 100.039062 239.175781 C 99.480469 239.175781 98.921875 239.164062 98.367188 239.164062 C 98.015625 238.636719 97.65625 238.105469 97.292969 237.574219 C 97.265625 237.59375 97.253906 237.605469 97.253906 237.605469 C 89.75 226.121094 69.316406 204.570312 69.316406 204.570312 C 68.941406 204.195312 68.53125 203.867188 68.078125 203.574219 L 50.625 224.867188 C 64.472656 235.347656 81.703125 241.582031 100.339844 241.582031 C 130.609375 241.582031 157.15625 225.15625 171.542969 200.765625 L 171.308594 200.777344 C 171.3125 200.878906 171.191406 200.925781 171.027344 200.96875 Z M 171.027344 200.96875 "/>
<path style=" stroke:none;fill-rule:nonzero;fill:rgb(0%,41.960784%,65.098039%);fill-opacity:1;" d="M 33.757812 191.695312 C 33.757812 187.792969 37.730469 185.039062 37.730469 181.910156 C 37.730469 178.804688 36.234375 176.585938 36.234375 176.585938 L 38.289062 174.964844 C 36.160156 173.960938 36.3125 172.976562 36.3125 172.976562 C 39.207031 169.351562 38.695312 167.773438 38.695312 167.773438 C 38.695312 165.660156 37.765625 164.332031 36.683594 163.140625 C 35.679688 162.015625 34.53125 160.996094 33.964844 159.554688 C 33.144531 157.496094 36.761719 154.25 36.761719 154.25 C 39.597656 151.558594 46.238281 145.304688 46.238281 145.304688 C 50.628906 140.910156 50.566406 136.628906 51.851562 132.832031 C 53.613281 127.625 64.683594 115.378906 64.683594 115.378906 C 66.785156 111.535156 68.433594 108.613281 70.074219 106.410156 C 70.078125 106.40625 70.082031 106.398438 70.082031 106.398438 C 70.082031 106.398438 74.570312 98.648438 87.171875 98.648438 C 104.492188 98.648438 115.90625 104.933594 122.261719 107.613281 C 125.570312 109.214844 129.238281 110.613281 133.171875 111.710938 C 134.625 112.117188 136.070312 112.464844 137.496094 112.765625 L 152.238281 94.78125 C 138.035156 83.273438 119.972656 76.355469 100.339844 76.355469 C 54.84375 76.355469 17.734375 113.46875 17.734375 158.972656 C 17.734375 184.441406 29.367188 207.28125 47.589844 222.457031 L 64.292969 202.078125 C 62.046875 201.515625 58.988281 201.074219 54.59375 200.488281 C 38.277344 198.28125 33.757812 196.808594 33.757812 191.695312 Z M 33.757812 191.695312 "/>
<path style=" stroke:none;fill-rule:nonzero;fill:rgb(100%,100%,100%);fill-opacity:1;" d="M 36.664062 72.425781 L 34.546875 63.261719 L 34.589844 63.230469 L 41.90625 69.027344 Z M 44.042969 70.515625 L 48.902344 74.332031 L 51.398438 72.714844 L 34.328125 59.835938 L 31.738281 61.515625 L 36.34375 82.472656 L 38.699219 80.949219 L 37.273438 74.902344 Z M 44.042969 70.515625 "/>
<path style=" stroke:none;fill-rule:nonzero;fill:rgb(100%,100%,100%);fill-opacity:1;" d="M 40.472656 55.078125 L 55.292969 48.214844 L 56.304688 50.398438 L 50.132812 53.253906 L 57.589844 69.296875 L 55.121094 70.441406 L 47.664062 54.398438 L 41.488281 57.257812 Z M 40.472656 55.078125 "/>
<path style=" stroke:none;fill-rule:nonzero;fill:rgb(100%,100%,100%);fill-opacity:1;" d="M 65.964844 57.085938 L 66.660156 47.703125 L 66.71875 47.6875 L 71.976562 55.394531 Z M 73.578125 57.441406 L 77.082031 62.527344 L 79.9375 61.726562 L 67.472656 44.367188 L 64.5 45.203125 L 62.675781 66.582031 L 65.371094 65.828125 L 65.808594 59.628906 Z M 73.578125 57.441406 "/>
<path style=" stroke:none;fill-rule:nonzero;fill:rgb(100%,100%,100%);fill-opacity:1;" d="M 85.0625 58.046875 L 95.183594 56.816406 L 95.480469 59.203125 L 82.652344 60.769531 L 80.199219 40.832031 L 82.894531 40.503906 Z M 85.0625 58.046875 "/>
<path style=" stroke:none;fill-rule:nonzero;fill:rgb(100%,100%,100%);fill-opacity:1;" d="M 104.253906 51.328125 L 108.269531 42.816406 L 108.324219 42.828125 L 110.472656 51.898438 Z M 111.230469 54.382812 L 112.679688 60.386719 L 115.640625 60.660156 L 110.21875 39.992188 L 107.144531 39.707031 L 97.777344 59.027344 L 100.566406 59.277344 L 103.191406 53.644531 Z M 111.230469 54.382812 "/>
<path style=" stroke:none;fill-rule:nonzero;fill:rgb(100%,100%,100%);fill-opacity:1;" d="M 136.933594 45.207031 L 139.464844 45.953125 L 133.707031 65.207031 L 130.773438 64.335938 L 125.625 45.871094 L 125.570312 45.859375 L 120.921875 61.40625 L 118.394531 60.65625 L 124.152344 41.40625 L 127.238281 42.328125 L 132.234375 60.742188 L 132.28125 60.753906 Z M 136.933594 45.207031 "/>
<path style=" stroke:none;fill-rule:nonzero;fill:rgb(100%,100%,100%);fill-opacity:1;" d="M 142.855469 47.035156 L 157.679688 53.914062 L 156.660156 56.09375 L 150.480469 53.226562 L 143.019531 69.257812 L 140.550781 68.117188 L 148.015625 52.085938 L 141.835938 49.214844 Z M 142.855469 47.035156 "/>
<path style=" stroke:none;fill-rule:nonzero;fill:rgb(100%,100%,100%);fill-opacity:1;" d="M 155.667969 66.921875 L 163.285156 61.378906 L 163.324219 61.410156 L 160.859375 70.40625 Z M 160.332031 72.945312 L 158.71875 78.90625 L 161.183594 80.558594 L 166.347656 59.832031 L 163.789062 58.117188 L 146.289062 70.574219 L 148.613281 72.132812 L 153.632812 68.449219 Z M 160.332031 72.945312 "/>
<path style=" stroke:none;fill-rule:nonzero;fill:rgb(100%,100%,100%);fill-opacity:1;" d="M 63.046875 276.601562 L 59.902344 275.601562 L 65.210938 258.957031 L 59.726562 257.214844 L 60.476562 254.878906 C 64.367188 255.824219 66.054688 255.957031 68.21875 252.417969 L 70.523438 253.15625 Z M 63.046875 276.601562 "/>
<path style=" stroke:none;fill-rule:nonzero;fill:rgb(100%,100%,100%);fill-opacity:1;" d="M 83.730469 270.667969 C 81.675781 270.414062 78.824219 269.46875 79.398438 264.78125 C 79.800781 261.519531 81.949219 259.53125 84.796875 259.875 C 88.3125 260.304688 89.4375 262.90625 89.101562 265.6875 C 88.515625 270.507812 85.328125 270.859375 83.730469 270.667969 M 82.9375 273.355469 C 85.203125 273.628906 87.765625 272.882812 88.902344 271.113281 L 88.960938 271.191406 C 87.425781 277.414062 85.304688 280.011719 81.964844 279.609375 C 79.460938 279.304688 78.1875 277.59375 78.316406 275.109375 L 75.253906 274.742188 C 74.964844 277.101562 75.984375 281.453125 81.726562 282.148438 C 90.144531 283.175781 91.957031 272.085938 92.269531 269.484375 C 92.761719 265.53125 92.890625 258.078125 85.097656 257.128906 C 79.953125 256.503906 76.761719 260.09375 76.214844 264.535156 C 75.621094 269.394531 78.421875 272.800781 82.9375 273.355469 "/>
<path style=" stroke:none;fill-rule:nonzero;fill:rgb(100%,100%,100%);fill-opacity:1;" d="M 113.921875 270.214844 C 114.308594 276.355469 112.929688 280.160156 109.398438 280.378906 C 105.863281 280.597656 104.027344 277 103.644531 270.855469 C 103.265625 264.710938 104.644531 260.910156 108.171875 260.695312 C 111.707031 260.476562 113.542969 264.070312 113.921875 270.214844 M 117.214844 270.015625 C 116.898438 264.914062 115.0625 257.5 108 257.9375 C 100.9375 258.375 100.042969 265.964844 100.359375 271.0625 C 100.675781 276.152344 102.507812 283.570312 109.566406 283.136719 C 116.628906 282.695312 117.53125 275.109375 117.214844 270.015625 "/>
<path style=" stroke:none;fill-rule:nonzero;fill:rgb(100%,100%,100%);fill-opacity:1;" d="M 121.210938 256.410156 L 137.585938 251.742188 L 138.328125 254.335938 C 136.671875 257.460938 133.175781 266.601562 134.480469 277.652344 L 131.214844 278.582031 C 130.160156 271.863281 132.046875 262.164062 135.078125 255.585938 L 122.046875 259.300781 Z M 121.210938 256.410156 "/>
<path style=" stroke:none;fill-rule:nonzero;fill:rgb(0%,0%,0%);fill-opacity:1;" d="M 177.6875 189.027344 C 170.675781 197.109375 160.585938 202.355469 149.28125 202.667969 C 136.054688 203.0625 124.109375 196.671875 116.574219 186.554688 C 124.175781 190.566406 133.183594 194.238281 142.980469 195.199219 C 155.921875 196.476562 168.066406 193.5 177.6875 189.027344 "/>
<path style=" stroke:none;fill-rule:nonzero;fill:rgb(0%,0%,0%);fill-opacity:1;" d="M 75.519531 116.578125 C 75.519531 116.578125 79.703125 108.234375 97.066406 108.234375 C 116.605469 108.234375 137.203125 125.710938 157.527344 125.710938 C 157.527344 125.710938 167.335938 124.238281 168.417969 123.164062 C 168.417969 123.164062 164.515625 130.441406 153.191406 130.441406 C 128.226562 130.441406 116.039062 113.207031 92.085938 113.207031 C 82.117188 113.207031 75.519531 116.578125 75.519531 116.578125 "/>
<path style=" stroke:none;fill-rule:nonzero;fill:rgb(0%,0%,0%);fill-opacity:1;" d="M 80.542969 133.339844 C 80.542969 133.339844 84.714844 124.988281 102.101562 124.988281 C 121.617188 124.988281 139.53125 141.179688 156.785156 141.179688 C 156.785156 141.179688 168.789062 141.828125 174.542969 136.058594 C 174.542969 136.058594 170.9375 146.148438 155.039062 146.148438 C 129.589844 146.148438 118.84375 130.378906 97.121094 130.378906 C 87.140625 130.375 80.542969 133.339844 80.542969 133.339844 "/>
<path style=" stroke:none;fill-rule:nonzero;fill:rgb(0%,0%,0%);fill-opacity:1;" d="M 92.066406 144.769531 C 115.023438 144.769531 121.453125 159.925781 149.46875 159.925781 C 179.074219 159.925781 178.933594 140.535156 178.933594 140.535156 C 178.933594 140.535156 176.160156 153.886719 152.046875 153.886719 C 127.679688 153.886719 114.871094 141.292969 99.144531 141.292969 C 87.425781 141.292969 84.015625 145.746094 84.015625 145.746094 L 92.066406 144.769531 "/>
<path style=" stroke:none;fill-rule:nonzero;fill:rgb(0%,0%,0%);fill-opacity:1;" d="M 94.863281 160.617188 C 94.863281 160.617188 100.660156 157.953125 106.328125 157.953125 C 119.171875 157.953125 126.007812 167.855469 150.1875 167.855469 C 150.1875 167.855469 174.367188 168.699219 179.589844 154.984375 C 179.589844 154.984375 178.476562 174.796875 150.113281 174.796875 C 123.574219 174.796875 120.394531 160.617188 94.863281 160.617188 "/>
<path style=" stroke:none;fill-rule:nonzero;fill:rgb(0%,0%,0%);fill-opacity:1;" d="M 99.230469 175.421875 C 99.230469 175.421875 102.375 174.035156 108.425781 174.035156 C 125.910156 174.035156 131.140625 181.976562 151.117188 181.976562 C 151.117188 181.976562 170.328125 182.242188 180.417969 172.179688 C 180.417969 172.179688 172.5 188.398438 151.3125 188.398438 C 123.410156 188.398438 120.699219 175.421875 99.230469 175.421875 "/>
</g>
</svg>
