<?xml version="1.0" encoding="utf-8"?>
<!-- Generator: Adobe Illustrator 27.5.0, SVG Export Plug-In . SVG Version: 6.00 Build 0)  -->
<svg version="1.1" id="Ñëîé_1" xmlns="http://www.w3.org/2000/svg" xmlns:xlink="http://www.w3.org/1999/xlink" x="0px" y="0px"
	 viewBox="0 0 1000 1000" style="enable-background:new 0 0 1000 1000;" xml:space="preserve">
<g>
	<rect style="fill:#ff7400;" width="1000" height="1000"/>
	<g>
		<g>
			<polygon style="fill:#333333;" points="50,58.813 0,16.024 0,101.603 0.004,101.603 50.002,144.391 100.002,187.182 
				100.002,101.603 99.998,101.603 			"/>
			<polygon style="fill:#333333;" points="50,160.414 0,117.626 0,203.205 0.004,203.205 50.002,245.992 100.002,288.783 
				100.002,203.205 99.998,203.205 			"/>
			<polygon style="fill:#333333;" points="50,262.018 0,219.229 0,304.807 0.004,304.807 50.002,347.596 100.002,390.385 
				100.002,304.807 99.998,304.807 			"/>
			<polygon style="fill:#333333;" points="50,363.619 0,320.83 0,406.408 0.004,406.408 50.002,449.197 100.002,491.987 
				100.002,406.408 99.998,406.408 			"/>
			<polygon style="fill:#333333;" points="50,465.221 0,422.433 0,508.011 0.004,508.011 50.002,550.8 100.002,593.591 
				100.002,508.011 99.998,508.011 			"/>
			<polygon style="fill:#333333;" points="0.004,0 50.002,42.789 100.002,85.579 100.002,0 			"/>
			<polygon style="fill:#333333;" points="50,566.823 0,524.034 0,609.613 0.004,609.613 50.002,652.402 100.002,695.193 
				100.002,609.613 99.998,609.613 			"/>
			<polygon style="fill:#333333;" points="50,668.426 0,625.637 0,711.216 0.004,711.216 50.002,754.004 100.002,796.795 
				100.002,711.216 99.998,711.216 			"/>
			<polygon style="fill:#333333;" points="50,770.027 0,727.239 0,812.817 0.004,812.817 50.002,855.606 100.002,898.398 
				100.002,812.817 99.998,812.817 			"/>
			<polygon style="fill:#333333;" points="50,871.63 0,828.841 0,914.42 0.004,914.42 50.002,957.209 100.002,1000 100.002,914.42 
				99.998,914.42 			"/>
			<polygon style="fill:#333333;" points="0,929.42 0,1000 82.473,1000 50,972.209 			"/>
		</g>
		<g>
			<polygon style="fill:#333333;" points="250,58.813 200,16.024 200,101.603 200.004,101.603 250.002,144.391 300.001,187.182 
				300.001,101.603 299.998,101.603 			"/>
			<polygon style="fill:#333333;" points="250,160.414 200,117.626 200,203.205 200.004,203.205 250.002,245.992 300.001,288.783 
				300.001,203.205 299.998,203.205 			"/>
			<polygon style="fill:#333333;" points="250,262.018 200,219.229 200,304.807 200.004,304.807 250.002,347.596 300.001,390.385 
				300.001,304.807 299.998,304.807 			"/>
			<polygon style="fill:#333333;" points="250,363.619 200,320.83 200,406.408 200.004,406.408 250.002,449.197 300.001,491.987 
				300.001,406.408 299.998,406.408 			"/>
			<polygon style="fill:#333333;" points="250,465.221 200,422.433 200,508.011 200.004,508.011 250.002,550.8 300.001,593.591 
				300.001,508.011 299.998,508.011 			"/>
			<polygon style="fill:#333333;" points="250.002,42.789 300.001,85.579 300.001,0 200.004,0 			"/>
			<polygon style="fill:#333333;" points="250,566.823 200,524.034 200,609.613 200.004,609.613 250.002,652.402 300.001,695.193 
				300.001,609.613 299.998,609.613 			"/>
			<polygon style="fill:#333333;" points="250,668.426 200,625.637 200,711.216 200.004,711.216 250.002,754.004 300.001,796.795 
				300.001,711.216 299.998,711.216 			"/>
			<polygon style="fill:#333333;" points="250,770.027 200,727.239 200,812.817 200.004,812.817 250.002,855.606 300.001,898.398 
				300.001,812.817 299.998,812.817 			"/>
			<polygon style="fill:#333333;" points="250,871.63 200,828.841 200,914.42 200.004,914.42 250.002,957.209 300.001,1000 
				300.001,914.42 299.998,914.42 			"/>
			<polygon style="fill:#333333;" points="449.999,58.813 399.999,16.024 399.999,101.603 400.003,101.603 450.001,144.391 
				500.001,187.182 500.001,101.603 499.998,101.603 			"/>
			<polygon style="fill:#333333;" points="449.999,160.414 399.999,117.626 399.999,203.205 400.003,203.205 450.001,245.992 
				500.001,288.783 500.001,203.205 499.998,203.205 			"/>
			<polygon style="fill:#333333;" points="449.999,262.018 399.999,219.229 399.999,304.807 400.003,304.807 450.001,347.596 
				500.001,390.385 500.001,304.807 499.998,304.807 			"/>
			<polygon style="fill:#333333;" points="449.999,363.619 399.999,320.83 399.999,406.408 400.003,406.408 450.001,449.197 
				500.001,491.987 500.001,406.408 499.998,406.408 			"/>
			<polygon style="fill:#333333;" points="449.999,465.221 399.999,422.433 399.999,508.011 400.003,508.011 450.001,550.8 
				500.001,593.591 500.001,508.011 499.998,508.011 			"/>
			<polygon style="fill:#333333;" points="450.001,42.789 500.001,85.579 500.001,0 400.003,0 			"/>
			<polygon style="fill:#333333;" points="449.999,566.823 399.999,524.034 399.999,609.613 400.003,609.613 450.001,652.402 
				500.001,695.193 500.001,609.613 499.998,609.613 			"/>
			<polygon style="fill:#333333;" points="449.999,668.426 399.999,625.637 399.999,711.216 400.003,711.216 450.001,754.004 
				500.001,796.795 500.001,711.216 499.998,711.216 			"/>
			<polygon style="fill:#333333;" points="449.999,770.027 399.999,727.239 399.999,812.817 400.003,812.817 450.001,855.606 
				500.001,898.398 500.001,812.817 499.998,812.817 			"/>
			<polygon style="fill:#333333;" points="449.999,871.63 399.999,828.841 399.999,914.42 400.003,914.42 450.001,957.209 
				500.001,1000 500.001,914.42 499.998,914.42 			"/>
			<polygon style="fill:#333333;" points="650,58.813 600,16.024 600,101.603 600.004,101.603 650.002,144.391 700.002,187.182 
				700.002,101.603 699.998,101.603 			"/>
			<polygon style="fill:#333333;" points="650,160.414 600,117.626 600,203.205 600.004,203.205 650.002,245.992 700.002,288.783 
				700.002,203.205 699.998,203.205 			"/>
			<polygon style="fill:#333333;" points="650,262.018 600,219.229 600,304.807 600.004,304.807 650.002,347.596 700.002,390.385 
				700.002,304.807 699.998,304.807 			"/>
			<polygon style="fill:#333333;" points="650,363.619 600,320.83 600,406.408 600.004,406.408 650.002,449.197 700.002,491.987 
				700.002,406.408 699.998,406.408 			"/>
			<polygon style="fill:#333333;" points="650,465.221 600,422.433 600,508.011 600.004,508.011 650.002,550.8 700.002,593.591 
				700.002,508.011 699.998,508.011 			"/>
			<polygon style="fill:#333333;" points="650.002,42.789 700.002,85.579 700.002,0 600.004,0 			"/>
			<polygon style="fill:#333333;" points="650,566.823 600,524.034 600,609.613 600.004,609.613 650.002,652.402 700.002,695.193 
				700.002,609.613 699.998,609.613 			"/>
			<polygon style="fill:#333333;" points="650,668.426 600,625.637 600,711.216 600.004,711.216 650.002,754.004 700.002,796.795 
				700.002,711.216 699.998,711.216 			"/>
			<polygon style="fill:#333333;" points="650,770.027 600,727.239 600,812.817 600.004,812.817 650.002,855.606 700.002,898.398 
				700.002,812.817 699.998,812.817 			"/>
			<polygon style="fill:#333333;" points="650,871.63 600,828.841 600,914.42 600.004,914.42 650.002,957.209 700.002,1000 
				700.002,914.42 699.998,914.42 			"/>
			<polygon style="fill:#333333;" points="850,58.813 800,16.024 800,101.603 800.004,101.603 850.002,144.391 900.002,187.182 
				900.002,101.603 899.998,101.603 			"/>
			<polygon style="fill:#333333;" points="850,160.414 800,117.626 800,203.205 800.004,203.205 850.002,245.992 900.002,288.783 
				900.002,203.205 899.998,203.205 			"/>
			<polygon style="fill:#333333;" points="850,262.018 800,219.229 800,304.807 800.004,304.807 850.002,347.596 900.002,390.385 
				900.002,304.807 899.998,304.807 			"/>
			<polygon style="fill:#333333;" points="850,363.619 800,320.83 800,406.408 800.004,406.408 850.002,449.197 900.002,491.987 
				900.002,406.408 899.998,406.408 			"/>
			<polygon style="fill:#333333;" points="850,465.221 800,422.433 800,508.011 800.004,508.011 850.002,550.8 900.002,593.591 
				900.002,508.011 899.998,508.011 			"/>
			<polygon style="fill:#333333;" points="800.004,0 850.002,42.789 900.002,85.579 900.002,0 			"/>
			<polygon style="fill:#333333;" points="850,566.823 800,524.034 800,609.613 800.004,609.613 850.002,652.402 900.002,695.193 
				900.002,609.613 899.998,609.613 			"/>
			<polygon style="fill:#333333;" points="850,668.426 800,625.637 800,711.216 800.004,711.216 850.002,754.004 900.002,796.795 
				900.002,711.216 899.998,711.216 			"/>
			<polygon style="fill:#333333;" points="850,770.027 800,727.239 800,812.817 800.004,812.817 850.002,855.606 900.002,898.398 
				900.002,812.817 899.998,812.817 			"/>
			<polygon style="fill:#333333;" points="850,871.63 800,828.841 800,914.42 800.004,914.42 850.002,957.209 900.002,1000 
				900.002,914.42 899.998,914.42 			"/>
			<polygon style="fill:#333333;" points="200.004,929.42 200.004,1000 282.476,1000 250.003,972.209 			"/>
			<polygon style="fill:#333333;" points="400.007,929.42 400.007,1000 482.48,1000 450.005,972.209 			"/>
			<polygon style="fill:#333333;" points="600.01,929.42 600.01,1000 682.482,1000 650.01,972.209 			"/>
			<polygon style="fill:#333333;" points="800.014,929.42 800.014,1000 882.486,1000 850.014,972.209 			"/>
		</g>
	</g>
	<g>
		<polygon style="fill:#333333;" points="99.99,0 99.99,85.579 149.988,42.789 199.988,0 199.986,0 		"/>
		<polygon style="fill:#333333;" points="199.984,101.603 199.984,16.024 149.986,58.813 99.986,101.603 99.99,101.603 
			99.99,187.182 149.988,144.391 199.988,101.603 199.986,101.603 		"/>
		<polygon style="fill:#333333;" points="199.984,203.205 199.984,117.626 149.986,160.414 99.986,203.205 99.99,203.205 
			99.99,288.783 149.988,245.992 199.988,203.205 199.986,203.205 		"/>
		<polygon style="fill:#333333;" points="199.984,304.807 199.984,219.229 149.986,262.018 99.986,304.807 99.99,304.807 
			99.99,390.385 149.988,347.596 199.988,304.807 199.986,304.807 		"/>
		<polygon style="fill:#333333;" points="199.984,406.408 199.984,320.83 149.986,363.619 99.986,406.408 99.99,406.408 
			99.99,491.987 149.988,449.197 199.988,406.408 199.986,406.408 		"/>
		<polygon style="fill:#333333;" points="199.984,508.011 199.984,422.433 149.986,465.221 99.986,508.011 99.99,508.011 
			99.99,593.591 149.988,550.8 199.988,508.011 199.986,508.011 		"/>
		<polygon style="fill:#333333;" points="199.984,609.613 199.984,524.034 149.986,566.823 99.986,609.613 99.99,609.613 
			99.99,695.193 149.988,652.402 199.988,609.613 199.986,609.613 		"/>
		<polygon style="fill:#333333;" points="199.984,711.216 199.984,625.637 149.986,668.426 99.986,711.216 99.99,711.216 
			99.99,796.795 149.988,754.004 199.988,711.216 199.986,711.216 		"/>
		<polygon style="fill:#333333;" points="199.984,812.817 199.984,727.239 149.986,770.027 99.986,812.817 99.99,812.817 
			99.99,898.398 149.988,855.606 199.988,812.817 199.986,812.817 		"/>
		<polygon style="fill:#333333;" points="199.984,914.42 199.984,828.841 149.986,871.63 99.986,914.42 99.99,914.42 99.99,1000 
			149.988,957.209 199.988,914.42 199.986,914.42 		"/>
		<polygon style="fill:#333333;" points="299.99,0 299.99,85.579 349.988,42.789 399.988,0 399.986,0 		"/>
		<polygon style="fill:#333333;" points="399.984,101.603 399.984,16.024 349.986,58.813 299.986,101.603 299.99,101.603 
			299.99,187.182 349.988,144.391 399.988,101.603 399.986,101.603 		"/>
		<polygon style="fill:#333333;" points="399.984,203.205 399.984,117.626 349.986,160.414 299.986,203.205 299.99,203.205 
			299.99,288.783 349.988,245.992 399.988,203.205 399.986,203.205 		"/>
		<polygon style="fill:#333333;" points="399.984,304.807 399.984,219.229 349.986,262.018 299.986,304.807 299.99,304.807 
			299.99,390.385 349.988,347.596 399.988,304.807 399.986,304.807 		"/>
		<polygon style="fill:#333333;" points="399.984,406.408 399.984,320.83 349.986,363.619 299.986,406.408 299.99,406.408 
			299.99,491.987 349.988,449.197 399.988,406.408 399.986,406.408 		"/>
		<polygon style="fill:#333333;" points="399.984,508.011 399.984,422.433 349.986,465.221 299.986,508.011 299.99,508.011 
			299.99,593.591 349.988,550.8 399.988,508.011 399.986,508.011 		"/>
		<polygon style="fill:#333333;" points="399.984,609.613 399.984,524.034 349.986,566.823 299.986,609.613 299.99,609.613 
			299.99,695.193 349.988,652.402 399.988,609.613 399.986,609.613 		"/>
		<polygon style="fill:#333333;" points="399.984,711.216 399.984,625.637 349.986,668.426 299.986,711.216 299.99,711.216 
			299.99,796.795 349.988,754.004 399.988,711.216 399.986,711.216 		"/>
		<polygon style="fill:#333333;" points="399.984,812.817 399.984,727.239 349.986,770.027 299.986,812.817 299.99,812.817 
			299.99,898.398 349.988,855.606 399.988,812.817 399.986,812.817 		"/>
		<polygon style="fill:#333333;" points="399.984,914.42 399.984,828.841 349.986,871.63 299.986,914.42 299.99,914.42 299.99,1000 
			349.988,957.209 399.988,914.42 399.986,914.42 		"/>
		<polygon style="fill:#333333;" points="599.988,0 599.986,0 499.99,0 499.99,85.579 549.988,42.789 		"/>
		<polygon style="fill:#333333;" points="499.99,187.182 549.988,144.391 599.988,101.603 599.986,101.603 599.984,101.603 
			599.984,16.024 549.986,58.813 499.986,101.603 499.99,101.603 		"/>
		<polygon style="fill:#333333;" points="499.99,288.783 549.988,245.992 599.988,203.205 599.986,203.205 599.984,203.205 
			599.984,117.626 549.986,160.414 499.986,203.205 499.99,203.205 		"/>
		<polygon style="fill:#333333;" points="499.99,390.385 549.988,347.596 599.988,304.807 599.986,304.807 599.984,304.807 
			599.984,219.229 549.986,262.018 499.986,304.807 499.99,304.807 		"/>
		<polygon style="fill:#333333;" points="499.99,491.987 549.988,449.197 599.988,406.408 599.986,406.408 599.984,406.408 
			599.984,320.83 549.986,363.619 499.986,406.408 499.99,406.408 		"/>
		<polygon style="fill:#333333;" points="499.99,593.591 549.988,550.8 599.988,508.011 599.986,508.011 599.984,508.011 
			599.984,422.433 549.986,465.221 499.986,508.011 499.99,508.011 		"/>
		<polygon style="fill:#333333;" points="499.99,695.193 549.988,652.402 599.988,609.613 599.986,609.613 599.984,609.613 
			599.984,524.034 549.986,566.823 499.986,609.613 499.99,609.613 		"/>
		<polygon style="fill:#333333;" points="499.99,796.795 549.988,754.004 599.988,711.216 599.986,711.216 599.984,711.216 
			599.984,625.637 549.986,668.426 499.986,711.216 499.99,711.216 		"/>
		<polygon style="fill:#333333;" points="499.99,898.398 549.988,855.606 599.988,812.817 599.986,812.817 599.984,812.817 
			599.984,727.239 549.986,770.027 499.986,812.817 499.99,812.817 		"/>
		<polygon style="fill:#333333;" points="549.988,957.209 599.988,914.42 599.986,914.42 599.984,914.42 599.984,828.841 
			549.986,871.63 499.986,914.42 499.99,914.42 499.99,1000 		"/>
		<polygon style="fill:#333333;" points="799.988,0 799.986,0 699.99,0 699.99,85.579 749.988,42.789 		"/>
		<polygon style="fill:#333333;" points="699.99,187.182 749.988,144.391 799.988,101.603 799.986,101.603 799.984,101.603 
			799.984,16.024 749.986,58.813 699.986,101.603 699.99,101.603 		"/>
		<polygon style="fill:#333333;" points="699.99,288.783 749.988,245.992 799.988,203.205 799.986,203.205 799.984,203.205 
			799.984,117.626 749.986,160.414 699.986,203.205 699.99,203.205 		"/>
		<polygon style="fill:#333333;" points="699.99,390.385 749.988,347.596 799.988,304.807 799.986,304.807 799.984,304.807 
			799.984,219.229 749.986,262.018 699.986,304.807 699.99,304.807 		"/>
		<polygon style="fill:#333333;" points="699.99,491.987 749.988,449.197 799.988,406.408 799.986,406.408 799.984,406.408 
			799.984,320.83 749.986,363.619 699.986,406.408 699.99,406.408 		"/>
		<polygon style="fill:#333333;" points="699.99,593.591 749.988,550.8 799.988,508.011 799.986,508.011 799.984,508.011 
			799.984,422.433 749.986,465.221 699.986,508.011 699.99,508.011 		"/>
		<polygon style="fill:#333333;" points="699.99,695.193 749.988,652.402 799.988,609.613 799.986,609.613 799.984,609.613 
			799.984,524.034 749.986,566.823 699.986,609.613 699.99,609.613 		"/>
		<polygon style="fill:#333333;" points="699.99,796.795 749.988,754.004 799.988,711.216 799.986,711.216 799.984,711.216 
			799.984,625.637 749.986,668.426 699.986,711.216 699.99,711.216 		"/>
		<polygon style="fill:#333333;" points="699.99,898.398 749.988,855.606 799.988,812.817 799.986,812.817 799.984,812.817 
			799.984,727.239 749.986,770.027 699.986,812.817 699.99,812.817 		"/>
		<polygon style="fill:#333333;" points="749.988,957.209 799.988,914.42 799.986,914.42 799.984,914.42 799.984,828.841 
			749.986,871.63 699.986,914.42 699.99,914.42 699.99,1000 		"/>
		<polygon style="fill:#333333;" points="999.988,0 999.986,0 899.99,0 899.99,85.579 949.988,42.789 		"/>
		<polygon style="fill:#333333;" points="899.99,187.182 949.988,144.391 999.988,101.603 999.986,101.603 999.984,101.603 
			999.984,16.024 949.986,58.813 899.986,101.603 899.99,101.603 		"/>
		<polygon style="fill:#333333;" points="899.99,288.783 949.988,245.992 999.988,203.205 999.986,203.205 999.984,203.205 
			999.984,117.626 949.986,160.414 899.986,203.205 899.99,203.205 		"/>
		<polygon style="fill:#333333;" points="899.99,390.385 949.988,347.596 999.988,304.807 999.986,304.807 999.984,304.807 
			999.984,219.229 949.986,262.018 899.986,304.807 899.99,304.807 		"/>
		<polygon style="fill:#333333;" points="899.99,491.987 949.988,449.197 999.988,406.408 999.986,406.408 999.984,406.408 
			999.984,320.83 949.986,363.619 899.986,406.408 899.99,406.408 		"/>
		<polygon style="fill:#333333;" points="899.99,593.591 949.988,550.8 999.988,508.011 999.986,508.011 999.984,508.011 
			999.984,422.433 949.986,465.221 899.986,508.011 899.99,508.011 		"/>
		<polygon style="fill:#333333;" points="899.99,695.193 949.988,652.402 999.988,609.613 999.986,609.613 999.984,609.613 
			999.984,524.034 949.986,566.823 899.986,609.613 899.99,609.613 		"/>
		<polygon style="fill:#333333;" points="899.99,796.795 949.988,754.004 999.988,711.216 999.986,711.216 999.984,711.216 
			999.984,625.637 949.986,668.426 899.986,711.216 899.99,711.216 		"/>
		<polygon style="fill:#333333;" points="899.99,898.398 949.988,855.606 999.988,812.817 999.986,812.817 999.984,812.817 
			999.984,727.239 949.986,770.027 899.986,812.817 899.99,812.817 		"/>
		<polygon style="fill:#333333;" points="949.988,957.209 999.988,914.42 999.986,914.42 999.984,914.42 999.984,828.841 
			949.986,871.63 899.986,914.42 899.99,914.42 899.99,1000 		"/>
		<polygon style="fill:#333333;" points="117.513,1000 199.984,1000 199.984,929.42 149.986,972.209 		"/>
		<polygon style="fill:#333333;" points="317.515,1000 399.988,1000 399.988,929.42 349.99,972.209 		"/>
		<polygon style="fill:#333333;" points="517.519,1000 599.992,1000 599.992,929.42 549.992,972.209 		"/>
		<polygon style="fill:#333333;" points="717.523,1000 799.996,1000 799.996,929.42 749.996,972.209 		"/>
		<polygon style="fill:#333333;" points="950,972.209 917.527,1000 1000,1000 1000,929.42 		"/>
	</g>
</g>
</svg>
